<?xml version="1.0" encoding="UTF-8" standalone="no"?>
<!DOCTYPE svg PUBLIC "-//W3C//DTD SVG 1.1//EN" "http://www.w3.org/Graphics/SVG/1.1/DTD/svg11.dtd">
<svg width="100%" height="100%" viewBox="0 0 1343 300" version="1.1" xmlns="http://www.w3.org/2000/svg" xmlns:xlink="http://www.w3.org/1999/xlink" xml:space="preserve" xmlns:serif="http://www.serif.com/" style="fill-rule:evenodd;clip-rule:evenodd;stroke-linejoin:round;stroke-miterlimit:2;">
    <g transform="matrix(2.158273,0,0,2.158273,0,0)">
        <path d="M78.918,99.541L130.043,69.874L78.918,40.352L78.918,99.541ZM21.602,134.824C13.105,132.519 6.48,125.751 4.032,117.398C0,101.989 0,69.874 0,69.874C0,69.874 0,37.76 4.032,22.495C6.48,13.998 13.105,7.373 21.602,5.069C36.867,0.892 98.504,0.892 98.504,0.892C98.504,0.892 160.286,0.892 175.551,5.069C184.192,7.373 190.672,13.998 192.977,22.495C197.153,37.76 197.153,69.874 197.153,69.874C197.153,69.874 197.153,101.989 192.977,117.398C190.672,125.751 184.192,132.519 175.551,134.824C160.286,139 98.504,139 98.504,139C98.504,139 36.867,139 21.602,134.824Z" style="fill:rgb(238,29,58);fill-rule:nonzero;"/>
        <path d="M78.918,99.541L130.043,69.874L78.918,40.352L78.918,99.541Z" style="fill:white;fill-rule:nonzero;"/>
        <path d="M239.113,130.503L239.113,92.701L216.287,9.533L236.088,9.533L244.297,46.4C246.169,54.897 248.114,67.066 248.978,71.459L249.122,71.459C249.986,67.21 251.858,55.041 253.802,46.544L262.299,9.533L282.101,9.533L258.987,92.701L258.987,130.503L239.113,130.503Z" style="fill:white;fill-rule:nonzero;"/>
        <path d="M310.251,75.923C310.251,58.93 308.667,54.033 303.051,54.033C297.291,54.033 295.562,58.93 295.562,75.923L295.562,96.229C295.562,113.798 297.291,118.262 302.763,118.262C308.667,118.262 310.251,113.798 310.251,96.229L310.251,75.923ZM330.414,82.692L330.414,89.748C330.414,121.142 323.501,131.799 302.907,131.799C281.737,131.799 275.401,120.854 275.401,89.748L275.401,82.692C275.401,50.577 283.609,40.352 303.339,40.352C323.069,40.352 330.414,51.009 330.414,82.692Z" style="fill:white;fill-rule:nonzero;"/>
        <path d="M338.76,108.469L338.76,42.08L358.634,42.08L358.634,106.381C358.634,114.158 360.362,117.614 364.466,117.614C367.563,117.614 370.586,116.246 372.747,110.486L372.747,42.08L392.621,42.08L392.621,130.359L375.771,130.359L374.62,118.478L374.547,118.478C372.099,126.903 367.275,132.087 357.266,132.087C344.016,132.087 338.76,123.591 338.76,108.469Z" style="fill:white;fill-rule:nonzero;"/>
        <path d="M406.584,130.359L406.584,26.527L386.927,26.527L386.927,9.533L446.117,9.533L446.117,26.527L426.459,26.527L426.459,130.359L406.584,130.359Z" style="fill:white;fill-rule:nonzero;"/>
        <path d="M440.641,108.469L440.641,42.08L460.515,42.08L460.515,106.381C460.515,114.158 462.243,117.614 466.347,117.614C469.444,117.614 472.467,116.246 474.627,110.486L474.627,42.08L494.501,42.08L494.501,130.359L477.652,130.359L476.501,118.478L476.428,118.478C473.98,126.903 469.156,132.087 459.147,132.087C445.897,132.087 440.641,123.591 440.641,108.469Z" style="fill:white;fill-rule:nonzero;"/>
        <path d="M540.362,79.379C540.362,58.93 538.635,54.465 533.09,54.465C529.345,54.465 525.745,57.777 524.305,64.114L524.305,112.862C526.033,116.246 529.057,117.686 532.226,117.686C538.202,117.686 540.362,111.35 540.362,92.197L540.362,79.379ZM560.669,79.379L560.669,91.188C560.669,119.703 554.62,131.655 541.227,131.655C533.09,131.655 526.969,128.055 523.801,122.007L523.729,122.007L522.432,130.359L505.151,130.359L505.151,5.069L524.305,5.069L524.305,30.415C524.305,37.04 524.449,43.664 523.873,51.585L524.088,51.585C527.401,44.96 533.09,40.352 542.019,40.352C554.836,40.352 560.669,48.704 560.669,79.379Z" style="fill:white;fill-rule:nonzero;"/>
        <path d="M588.096,74.771L588.096,81.468L601.2,81.468L601.2,74.771C601.2,58.497 600.553,53.889 594.576,53.889C588.6,53.889 588.096,58.641 588.096,74.771ZM621.002,92.557L588.096,92.557L588.096,97.381C588.096,112.934 588.455,118.262 594.864,118.262C601.2,118.262 602.641,113.366 602.784,103.285L620.282,104.077C621.578,123.303 611.642,131.799 594.792,131.799C574.342,131.799 568.294,118.406 568.294,94.069L568.294,78.659C568.294,53.025 575.063,40.496 595.368,40.496C615.817,40.496 621.002,51.153 621.002,77.795L621.002,92.557Z" style="fill:white;fill-rule:nonzero;"/>
    </g>
</svg>
